<?xml version="1.0" encoding="iso-8859-1"?>
<!-- Generator: Adobe Illustrator 16.0.0, SVG Export Plug-In . SVG Version: 6.00 Build 0)  -->
<!DOCTYPE svg PUBLIC "-//W3C//DTD SVG 1.1//EN" "http://www.w3.org/Graphics/SVG/1.1/DTD/svg11.dtd">
<svg version="1.1" id="Capa_1" xmlns="http://www.w3.org/2000/svg" xmlns:xlink="http://www.w3.org/1999/xlink" x="0px" y="0px"
	 width="44.666px" height="44.666px" viewBox="0 0 44.666 44.666" style="enable-background:new 0 0 44.666 44.666;"
	 xml:space="preserve">
<g>
	<path d="M36.689,13.857V7.966c0-4.427-3.644-7.966-8.07-7.966H16.038C11.61,0,7.976,3.539,7.976,7.966v5.892
		c-3.858,0.49-6.9,3.824-6.9,7.863v8.169c0,4.064,3.043,7.414,6.985,7.873c0,0,0.002-0.015,0.002-0.014
		c0.539,3.908,3.921,6.916,7.974,6.916h12.582c4.054,0,7.43-3.008,7.969-6.916c0-0.001,0.012,0.005,0.014,0.004
		c3.939-0.459,6.989-3.8,6.989-7.863v-8.169C43.589,17.682,40.547,14.348,36.689,13.857z M8.99,23.298
		c-1.502,0-2.721-1.219-2.721-2.721c0-1.503,1.218-2.721,2.721-2.721c1.503,0,2.72,1.218,2.72,2.721
		C11.709,22.079,10.493,23.298,8.99,23.298z M32.015,36.659c0,1.881-1.516,3.405-3.396,3.405H16.038
		c-1.88,0-3.461-1.524-3.461-3.405v-5.646h19.438V36.659z M32.015,13.652H12.576V7.966c0-1.88,1.581-3.439,3.461-3.439h12.582
		c1.88,0,3.396,1.56,3.396,3.439V13.652L32.015,13.652z"/>
</g>
<g>
</g>
<g>
</g>
<g>
</g>
<g>
</g>
<g>
</g>
<g>
</g>
<g>
</g>
<g>
</g>
<g>
</g>
<g>
</g>
<g>
</g>
<g>
</g>
<g>
</g>
<g>
</g>
<g>
</g>
</svg>
